<?xml version="1.0" encoding="UTF-8"?>
<svg width="26px" height="18px" viewBox="0 0 26 18" version="1.1" xmlns="http://www.w3.org/2000/svg" xmlns:xlink="http://www.w3.org/1999/xlink">
    <!-- Generator: Sketch 53.2 (72643) - https://sketchapp.com -->
    <title>icon-video</title>
    <desc>Created with Sketch.</desc>
    <g id="Page-1" stroke="none" stroke-width="1" fill="none" fill-rule="evenodd">
        <g id="Gallery" transform="translate(-787.000000, -448.000000)" fill="#ABB4BD">
            <g id="Group-4" transform="translate(482.000000, 138.000000)">
                <g id="Group-3-Copy" transform="translate(62.000000, 287.000000)">
                    <g id="icon-video" transform="translate(243.000000, 23.000000)">
                        <path d="M25.5994375,17.0680909 C25.4726875,17.1441818 25.3296875,17.1826364 25.1875,17.1826364 C25.0518125,17.1826364 24.9153125,17.1474545 24.792625,17.0787273 L18.6875,13.6628182 L18.6875,16.3636364 C18.6875,17.2660909 17.9586875,18 17.0625,18 L1.625,18 C0.7288125,18 0,17.2660909 0,16.3636364 L0,1.63636364 C0,0.733909091 0.7288125,0 1.625,0 L17.0625,0 C17.9586875,0 18.6875,0.733909091 18.6875,1.63636364 L18.6875,4.33718182 L24.792625,0.921272727 C25.0445,0.779727273 25.3508125,0.783818182 25.5994375,0.931090909 C25.84725,1.07836364 26,1.34672727 26,1.63636364 L26,16.3636364 C26,16.6540909 25.84725,16.9216364 25.5994375,17.0680909 Z M24.375,3.02727273 L18.269875,6.44236364 C18.256875,6.44972727 18.2430625,6.44890909 18.2300625,6.45463636 C18.1805,6.48 18.1260625,6.49145455 18.0708125,6.50618182 C18.019625,6.51927273 17.9700625,6.534 17.9180625,6.53727273 C17.9034375,6.53809091 17.8904375,6.54545455 17.875,6.54545455 C17.8368125,6.54545455 17.8035,6.52909091 17.7669375,6.52418182 C17.7125,6.516 17.6596875,6.50945455 17.6076875,6.49145455 C17.5573125,6.47345455 17.5134375,6.44727273 17.4679375,6.41945455 C17.4240625,6.39327273 17.3818125,6.36954545 17.3428125,6.33518182 C17.29975,6.29590909 17.2664375,6.25090909 17.2323125,6.20427273 C17.2111875,6.17563636 17.18275,6.156 17.164875,6.12490909 C17.1575625,6.11181818 17.158375,6.09790909 17.151875,6.08481818 C17.1283125,6.03572727 17.1169375,5.98254545 17.1023125,5.92772727 C17.0893125,5.87454545 17.073875,5.82381818 17.070625,5.76981818 C17.0698125,5.75509091 17.0625,5.74281818 17.0625,5.72727273 L17.0625,1.63636364 L1.625,1.63636364 L1.625,16.3636364 L17.0625,16.3636364 L17.0625,12.2727273 C17.0625,12.258 17.0698125,12.2457273 17.070625,12.231 C17.073875,12.177 17.0893125,12.1254545 17.103125,12.0714545 C17.1169375,12.0174545 17.1283125,11.9650909 17.151875,11.916 C17.158375,11.9029091 17.1575625,11.8881818 17.164875,11.8750909 C17.18275,11.8431818 17.212,11.8235455 17.233125,11.7940909 C17.26725,11.7482727 17.29975,11.7040909 17.342,11.6656364 C17.3818125,11.6304545 17.424875,11.6059091 17.470375,11.5789091 C17.51425,11.5527273 17.5565,11.5273636 17.6060625,11.5093636 C17.6605,11.4897273 17.71575,11.4831818 17.7734375,11.4758182 C17.808375,11.4709091 17.83925,11.4545455 17.875,11.4545455 C17.889625,11.4545455 17.901,11.4627273 17.915625,11.4635455 C17.9700625,11.466 18.0220625,11.4815455 18.0765,11.4954545 C18.1293125,11.5093636 18.1813125,11.5208182 18.22925,11.5445455 C18.24225,11.5510909 18.256875,11.5502727 18.269875,11.5576364 L24.375,14.9727273 L24.375,3.02727273 Z" id="Shape"></path>
                    </g>
                </g>
            </g>
        </g>
    </g>
</svg>