<?xml version="1.0" encoding="UTF-8"?>
<svg width="36px" height="29px" viewBox="0 0 36 29" version="1.1" xmlns="http://www.w3.org/2000/svg" xmlns:xlink="http://www.w3.org/1999/xlink">
    <!-- Generator: Sketch 52.5 (67469) - http://www.bohemiancoding.com/sketch -->
    <title>icon-connect-2</title>
    <desc>Created with Sketch.</desc>
    <g id="Page-1" stroke="none" stroke-width="1" fill="none" fill-rule="evenodd">
        <g id="InfoWidget" transform="translate(-11.000000, -89.000000)" fill-rule="nonzero">
            <g id="icon-connect-2" transform="translate(11.000000, 89.000000)">
                <circle id="Oval-Copy" fill="#E59924" opacity="0.25" cx="10.5" cy="10.5" r="10.5"></circle>
                <g id="telephone" transform="translate(7.000000, 0.000000)" fill="#1880A1">
                    <path d="M14.5,0 C6.50445833,0 0,6.50445833 0,14.5 C0,22.4955417 6.50445833,29 14.5,29 C17.7238333,29 20.7760833,27.9644583 23.355875,25.9791667 C24.3805417,25.081375 24.3624167,23.798125 23.88875,22.9245 C23.5890833,22.3710833 23.1323333,21.992875 22.6006667,21.8067917 L22.8435417,21.5349167 C23.2048333,21.1289167 23.3643333,20.586375 23.27975,20.0474583 C23.1951667,19.5085417 22.8761667,19.042125 22.406125,18.7654167 L19.2149167,16.8973333 C18.4742083,16.4635417 17.5184167,16.6145833 16.9456667,17.2562083 L16.2375833,18.0525 C16.1119167,18.193875 15.939125,18.2712083 15.743375,18.2542917 C15.554875,18.2397917 15.3869167,18.1419167 15.283,17.9848333 L11.393375,12.1159583 C11.2942917,11.9673333 11.2665,11.7909167 11.3160417,11.618125 C11.364375,11.4465417 11.480375,11.3112083 11.6435,11.2350833 L12.756375,10.7179167 C13.5381667,10.356625 13.9586667,9.486625 13.756875,8.64925 L12.8905,5.05566667 C12.763625,4.52520833 12.408375,4.085375 11.9177917,3.84854167 C11.426,3.6105 10.8617083,3.60566667 10.3662917,3.83525 L9.37304167,4.295625 C7.90491667,4.977125 6.82345833,6.264 6.40658333,7.82758333 L6.22533333,8.50908333 C5.897875,9.73554167 6.01145833,11.045375 6.54554167,12.1969167 L7.4385,14.123 C8.74833333,16.9492917 10.5366667,19.491625 12.75275,21.681125 L13.4898333,22.4085417 C14.5845833,23.49 16.0345833,24.1135 17.5715833,24.1630417 C17.6380417,24.1654583 17.7057083,24.1666667 17.7721667,24.1666667 C19.107375,24.1666667 20.3857917,23.72925 21.4334167,22.9365833 C21.4539583,22.9329583 21.4745,22.9377917 21.4950417,22.93175 C22.3167083,22.7021667 22.7239167,23.30875 22.826625,23.4996667 C23.0707083,23.9515833 23.0827917,24.6125417 22.5897917,25.0463333 C20.252875,26.8419167 17.4555833,27.7916667 14.5,27.7916667 C7.17145833,27.7916667 1.20833333,21.8285417 1.20833333,14.5 C1.20833333,7.17145833 7.17145833,1.20833333 14.5,1.20833333 C21.8285417,1.20833333 27.7916667,7.17145833 27.7916667,14.5 C27.7916667,14.8335 28.0623333,15.1041667 28.3958333,15.1041667 C28.7293333,15.1041667 29,14.8335 29,14.5 C29,6.50445833 22.4955417,0 14.5,0 Z M21.9445417,20.7325833 L21.4189167,21.32225 C20.4534583,22.4073333 19.078375,23.0066667 17.6126667,22.9559167 C16.381375,22.9160417 15.2189583,22.4157917 14.3417083,21.5494167 L13.604625,20.8207917 C11.49125,18.734 9.78629167,16.308875 8.536875,13.6142917 L7.64391667,11.6882083 C7.22825,10.791625 7.14004167,9.77420833 7.39379167,8.819625 L7.57504167,8.138125 C7.898875,6.92254167 8.739875,5.92083333 9.88295833,5.39158333 L10.8762083,4.93120833 C10.9559583,4.89495833 11.0429583,4.875625 11.1299583,4.875625 C11.2205833,4.875625 11.31,4.89495833 11.3945833,4.93483333 C11.5589167,5.01458333 11.676125,5.16079167 11.719625,5.33720833 L12.586,8.93079167 C12.6536667,9.20991667 12.5135,9.49991667 12.2525,9.62075 L11.139625,10.1379167 C10.6599167,10.36025 10.3010417,10.78075 10.15725,11.2894583 C10.0134583,11.7981667 10.0980417,12.343125 10.3904583,12.7841667 L14.278875,18.6530417 C14.5930417,19.1242917 15.0957083,19.419125 15.6612083,19.459 C16.2351667,19.5000833 16.7680417,19.2801667 17.1450417,18.8560417 L17.853125,18.05975 C18.0440417,17.845875 18.36425,17.795125 18.6095417,17.940125 L21.7995417,19.8082083 C21.956625,19.90125 22.0629583,20.057125 22.09075,20.2359583 C22.1185417,20.416 22.065375,20.59725 21.9445417,20.7325833 Z" id="Shape"></path>
                </g>
            </g>
        </g>
    </g>
</svg>