<?xml version="1.0" encoding="UTF-8"?>
<svg width="34px" height="37px" viewBox="0 0 34 37" version="1.1" xmlns="http://www.w3.org/2000/svg" xmlns:xlink="http://www.w3.org/1999/xlink">
    <!-- Generator: Sketch 52.5 (67469) - http://www.bohemiancoding.com/sketch -->
    <title>icon-connect-1</title>
    <desc>Created with Sketch.</desc>
    <g id="Page-1" stroke="none" stroke-width="1" fill="none" fill-rule="evenodd">
        <g id="InfoWidget" transform="translate(-18.000000, -24.000000)">
            <g id="icon-connect-1" transform="translate(18.000000, 24.000000)">
                <circle id="Oval" fill="#E59924" fill-rule="nonzero" opacity="0.25" cx="21" cy="24" r="13"></circle>
                <g id="open-mail.1" fill="#1880A1">
                    <path d="M14.5,18.737625 C13.8354167,18.737625 13.169625,18.5394583 12.589625,18.1419167 L2.68008333,11.3619583 C2.40458333,11.1734583 2.3345,10.7976667 2.52179167,10.5221667 C2.70908333,10.2466667 3.084875,10.1765833 3.36158333,10.3650833 L13.271125,17.1450417 C14.0166667,17.6549583 14.9809167,17.6549583 15.7276667,17.1450417 L25.6372083,10.3650833 C25.9139167,10.1777917 26.2885,10.247875 26.477,10.5221667 C26.6655,10.7976667 26.5954167,11.1734583 26.3199167,11.3619583 L16.410375,18.1419167 C15.830375,18.5394583 15.1645833,18.737625 14.5,18.737625 Z" id="Path"></path>
                    <path d="M25.9791667,28.38375 L3.02083333,28.38375 C1.35575,28.38375 0,27.028 0,25.3629167 L0,10.96925 C0,9.93975 0.51475,8.99241667 1.37870833,8.43295833 L12.5340417,1.20591667 C13.6795417,0.421708333 15.3071667,0.41325 16.4780417,1.214375 L27.6212917,8.43416667 C28.48525,8.99241667 29,9.93975 29,10.96925 L29,25.3629167 C29,27.0292083 27.64425,28.38375 25.9791667,28.38375 Z M14.5,1.81008333 C14.036,1.81008333 13.5877083,1.94904167 13.2034583,2.21125 L2.03604167,9.44795833 C1.51766667,9.78266667 1.20833333,10.3517917 1.20833333,10.96925 L1.20833333,25.3629167 C1.20833333,26.3622083 2.02154167,27.1754167 3.02083333,27.1754167 L25.9791667,27.1754167 C26.9784583,27.1754167 27.7916667,26.3622083 27.7916667,25.3629167 L27.7916667,10.96925 C27.7916667,10.3517917 27.4823333,9.783875 26.9639583,9.44795833 L15.808625,2.21970833 C15.4122917,1.94904167 14.964,1.81008333 14.5,1.81008333 Z" id="Shape" fill-rule="nonzero"></path>
                    <path d="M3.02083333,25.9670833 C2.84683333,25.9670833 2.67525,25.893375 2.555625,25.7495833 C2.34175,25.4934167 2.37679167,25.1115833 2.63295833,24.8977083 L9.88295833,18.8560417 C10.1403333,18.6421667 10.5209583,18.6772083 10.7348333,18.933375 C10.9487083,19.1895417 10.9136667,19.571375 10.6575,19.78525 L3.4075,25.8269167 C3.295125,25.9211667 3.157375,25.9670833 3.02083333,25.9670833 Z" id="Path"></path>
                    <path d="M25.9791667,25.9670833 C25.842625,25.9670833 25.7060833,25.9211667 25.5925,25.8269167 L18.3425,19.78525 C18.0863333,19.571375 18.0512917,19.19075 18.2651667,18.933375 C18.4778333,18.6772083 18.8584583,18.6421667 19.1170417,18.8560417 L26.3670417,24.8977083 C26.6232083,25.1115833 26.65825,25.4922083 26.444375,25.7495833 C26.3235417,25.893375 26.1519583,25.9670833 25.9791667,25.9670833 Z" id="Path"></path>
                </g>
            </g>
        </g>
    </g>
</svg>