<?xml version="1.0" encoding="UTF-8"?>
<svg width="26px" height="21px" viewBox="0 0 26 21" version="1.1" xmlns="http://www.w3.org/2000/svg" xmlns:xlink="http://www.w3.org/1999/xlink">
    <!-- Generator: Sketch 52.5 (67469) - http://www.bohemiancoding.com/sketch -->
    <title>icon-photo</title>
    <desc>Created with Sketch.</desc>
    <g id="Page-1" stroke="none" stroke-width="1" fill="none" fill-rule="evenodd">
        <g id="Gallery" transform="translate(-436.000000, -447.000000)" fill="#ABB4BD">
            <g id="Group-5" transform="translate(49.000000, 138.000000)">
                <g id="Group-3" transform="translate(145.000000, 287.000000)">
                    <g id="icon-photo" transform="translate(242.000000, 22.000000)">
                        <path d="M24.223875,21 L1.6144375,21 C0.7239375,21 0,20.2755 0,19.3846154 L0,1.61538462 C0,0.7245 0.7239375,0 1.6144375,0 L24.223875,0 C25.114375,0 25.8383125,0.7245 25.8383125,1.61538462 L25.8383125,17.7692308 C25.8383125,17.7692308 25.8383125,17.7692308 25.8383125,17.7692308 L25.8383125,19.3846154 C25.8383125,20.2755 25.114375,21 24.223875,21 Z M24.3075625,1.61538462 L1.5575625,1.61538462 L1.5575625,12.7898077 L7.5375625,7.47357692 C7.856875,7.18926923 8.34275,7.203 8.645,7.50588462 L14.594125,13.4561538 L18.06675,10.6768846 C18.3876875,10.4184231 18.851625,10.4450769 19.1425,10.7366538 L24.3075625,15.9034615 L24.3075625,1.61538462 Z M24.3075625,18.1876154 L18.5111875,12.39 L15.0385625,15.1692692 C14.717625,15.4261154 14.252875,15.4002692 13.9628125,15.1095 L8.0413125,9.18669231 L1.5575625,14.952 L1.5575625,19.3846154 L24.3075625,19.3846154 L24.3075625,18.1876154 Z M16.9560625,6.46315385 C16.9560625,5.57146154 17.681625,4.84615385 18.5729375,4.84615385 C19.462625,4.84615385 20.1865625,5.57146154 20.1865625,6.46315385 C20.1865625,7.35323077 19.462625,8.07692308 18.5729375,8.07692308 C17.681625,8.07692308 16.9560625,7.35323077 16.9560625,6.46315385 Z M18.5705,6.46234615 L18.5729375,7.26923077 L18.5729375,6.46153846 C18.572125,6.46153846 18.5713125,6.46153846 18.5705,6.46234615 Z" id="Shape"></path>
                    </g>
                </g>
            </g>
        </g>
    </g>
</svg>