<?xml version="1.0" encoding="UTF-8"?>
<svg width="35px" height="35px" viewBox="0 0 35 35" version="1.1" xmlns="http://www.w3.org/2000/svg" xmlns:xlink="http://www.w3.org/1999/xlink">
    <!-- Generator: Sketch 52.5 (67469) - http://www.bohemiancoding.com/sketch -->
    <title>icon-connect-3</title>
    <desc>Created with Sketch.</desc>
    <g id="Page-1" stroke="none" stroke-width="1" fill="none" fill-rule="evenodd">
        <g id="InfoWidget" transform="translate(-18.000000, -147.000000)" fill-rule="nonzero">
            <g id="icon-connect-3" transform="translate(18.000000, 147.000000)">
                <circle id="Oval-Copy-2" fill="#E59924" opacity="0.25" cx="22" cy="13" r="13"></circle>
                <g id="facebook.1" transform="translate(0.000000, 7.000000)" fill="#1880A1">
                    <path d="M25.9791667,27.84348 L19.9375,27.84348 C19.604,27.84348 19.3333333,27.58364 19.3333333,27.26348 L19.3333333,16.82348 C19.3333333,16.50332 19.604,16.24348 19.9375,16.24348 L23.1275,16.24348 L23.9334583,13.92348 L19.9375,13.92348 C19.604,13.92348 19.3333333,13.66364 19.3333333,13.34348 L19.3333333,9.86348 C19.3333333,8.265 20.6890833,6.96348 22.3541667,6.96348 L24.1666667,6.96348 L24.1666667,4.64348 L22.3541667,4.64348 C19.3562917,4.64348 16.9166667,6.98552 16.9166667,9.86348 L16.9166667,13.34348 C16.9166667,13.66364 16.646,13.92348 16.3125,13.92348 L13.2916667,13.92348 L13.2916667,16.24348 L16.3125,16.24348 C16.646,16.24348 16.9166667,16.50332 16.9166667,16.82348 L16.9166667,27.26348 C16.9166667,27.58364 16.646,27.84348 16.3125,27.84348 L3.02083333,27.84348 C1.35575,27.84348 0,26.54196 0,24.94348 L0,2.90348 C0,1.305 1.35575,0.00348 3.02083333,0.00348 L25.9791667,0.00348 C27.64425,0.00348 29,1.305 29,2.90348 L29,24.94348 C29,26.54196 27.64425,27.84348 25.9791667,27.84348 Z M20.5416667,26.68348 L25.9791667,26.68348 C26.9784583,26.68348 27.7916667,25.9028 27.7916667,24.94348 L27.7916667,2.90348 C27.7916667,1.94416 26.9784583,1.16348 25.9791667,1.16348 L3.02083333,1.16348 C2.02154167,1.16348 1.20833333,1.94416 1.20833333,2.90348 L1.20833333,24.94348 C1.20833333,25.9028 2.02154167,26.68348 3.02083333,26.68348 L15.7083333,26.68348 L15.7083333,17.40348 L12.6875,17.40348 C12.354,17.40348 12.0833333,17.14364 12.0833333,16.82348 L12.0833333,13.34348 C12.0833333,13.02332 12.354,12.76348 12.6875,12.76348 L15.7083333,12.76348 L15.7083333,9.86348 C15.7083333,6.3452 18.6892917,3.48348 22.3541667,3.48348 L24.7708333,3.48348 C25.1043333,3.48348 25.375,3.74332 25.375,4.06348 L25.375,7.54348 C25.375,7.86364 25.1043333,8.12348 24.7708333,8.12348 L22.3541667,8.12348 C21.354875,8.12348 20.5416667,8.90416 20.5416667,9.86348 L20.5416667,12.76348 L24.7708333,12.76348 C24.965375,12.76348 25.1478333,12.8528 25.2614167,13.00476 C25.375,13.15556 25.4064167,13.35044 25.3435833,13.52792 L24.13525,17.00792 C24.0530833,17.24456 23.8222917,17.40464 23.5625,17.40464 L20.5416667,17.40464 L20.5416667,26.68348 Z" id="Shape"></path>
                </g>
            </g>
        </g>
    </g>
</svg>