<svg xmlns="http://www.w3.org/2000/svg" xmlns:xlink="http://www.w3.org/1999/xlink" width="100%" height="100%" viewBox="0 0 360 72"><defs><style>.cls-1{fill:url(#linear-gradient);}.cls-2{fill:#fff;}</style><linearGradient id="linear-gradient" x1="180" y1="72" x2="180" gradientUnits="userSpaceOnUse"><stop offset="0" stop-color="#004acc"/><stop offset="0.01" stop-color="#004acd"/><stop offset="0.35" stop-color="#0757e1"/><stop offset="0.68" stop-color="#0b5eee"/><stop offset="1" stop-color="#0c61f2"/></linearGradient></defs><path class="cls-1" d="M342,0H18A18,18,0,0,0,0,18V72H360V18A18,18,0,0,0,342,0Z"/><path class="cls-2" d="M52.5,21.1l-2.6-1.8-2.6,1.8a22.4,22.4,0,0,0-8.6,17.7,22.7,22.7,0,0,0,.2,2.8,22.4,22.4,0,0,0,4.6,11.1,19.7,19.7,0,0,1,6.4-7.5,19.7,19.7,0,0,1,6.4,7.5,22.5,22.5,0,0,0-3.8-31.6Zm3.8,26.3a22.6,22.6,0,0,0-3.8-3.8l-2.6-1.8-2.6,1.8a22.6,22.6,0,0,0-3.8,3.8,19.5,19.5,0,0,1-1.7-5.6,19.8,19.8,0,0,1-.2-2.9v-.2a19.6,19.6,0,0,1,8.4-16.1,19.6,19.6,0,0,1,8.4,16.1V39a19.8,19.8,0,0,1-.2,2.9A19.5,19.5,0,0,1,56.3,47.4Z"/><path class="cls-2" d="M47,33.4l4.2-5.1L49.8,28A4.2,4.2,0,0,0,48,36l1.5-2.9Z"/><path class="cls-2" d="M51.7,28.5l-1.5,2.9,2.4-.3-4.2,5.1,1.4.2a4.2,4.2,0,0,0,1.9-8Z"/><path class="cls-2" d="M72.3,40.5h4.5v3.2H68.6V29.2h3.7Z"/><path class="cls-2" d="M81.7,41.2l-1,2.5h-4l5.5-14.4h4.1l5.4,14.4h-4l-.9-2.5Zm2.6-7.5h0l-1.5,4.6h3.1Z"/><path class="cls-2" d="M93,29.2h3.7l6.9,8.8h0V29.2h3.7V43.7h-3.7l-6.9-8.8h0v8.8H93Z"/><path class="cls-2" d="M109.8,29.2h5.3a7.2,7.2,0,1,1,0,14.4h-5.3Zm3.7,11.2h.8c2.2,0,4.1-1.2,4.1-4a3.8,3.8,0,0,0-4.1-4h-.9Z"/><path class="cls-2" d="M128,43.7h-3.7V29.2H128Z"/><path class="cls-2" d="M130.4,29.2h3.7l6.9,8.8h0V29.2h3.7V43.7h-3.7l-6.9-8.8h0v8.8h-3.7Z"/><path class="cls-2" d="M161.7,35.6a9.3,9.3,0,0,1-1.5,5.7,7,7,0,0,1-5.9,2.8,7.3,7.3,0,0,1-7.7-7.6c0-4.7,3.2-7.8,7.8-7.8a6.7,6.7,0,0,1,6.5,4l-3.6,1.5a3.3,3.3,0,0,0-3.1-2.3c-2.5,0-3.7,2.4-3.7,4.6s1.3,4.5,3.8,4.5a2.7,2.7,0,0,0,3-2.5h-3.1V35.6Z"/><path class="cls-2" d="M170,29.2h5.7c3.1,0,5.2,1.4,5.2,4.7s-1.8,4.9-5.1,4.9h-2.1v4.8H170Zm3.7,6.6h.6c1.4,0,2.7,0,2.7-1.8s-1.2-1.8-2.7-1.8h-.6Z"/><path class="cls-2" d="M184.9,41.2l-1,2.5h-4l5.5-14.4h4.1L195,43.7h-4l-.9-2.5Zm2.6-7.5h0l-1.5,4.6H189Z"/><path class="cls-2" d="M210.5,35.6a9.3,9.3,0,0,1-1.5,5.7,7,7,0,0,1-5.9,2.8,7.3,7.3,0,0,1-7.7-7.6c0-4.7,3.2-7.8,7.8-7.8a6.7,6.7,0,0,1,6.5,4l-3.6,1.5a3.3,3.3,0,0,0-3.1-2.3c-2.5,0-3.7,2.4-3.7,4.6s1.3,4.5,3.8,4.5a2.7,2.7,0,0,0,3-2.5h-3.1V35.6Z"/><path class="cls-2" d="M216,32.4v2.4h4.2V38H216v2.5h4.5v3.2h-8.2V29.2h8.2v3.2Z"/><path class="cls-2" d="M230.9,29.2h3.7l2.9,7.7,3.1-7.7h3.7l2.2,14.4h-3.7l-1.1-8.3h0l-3.5,8.3h-1.5l-3.3-8.3h0l-1.2,8.3h-3.7Z"/><path class="cls-2" d="M251.9,43.7h-3.7V29.2h3.7Z"/><path class="cls-2" d="M258.1,32.4v2.4h4.2V38h-4.2v2.5h4.5v3.2h-8.2V29.2h8.2v3.2Zm.2-8,3.4,2.5-1.2,1.3-2.2-1.7-2.2,1.7L255,26.9Zm-2.6-.3v-.2a3,3,0,0,1,.3-1.4,1.5,1.5,0,0,1,1.2-.9c.7,0,1.7.5,2.2.5s.4-.2.6-.6h1.2c-.1,1.1-.6,2.4-1.8,2.4s-1.4-.6-2.1-.6-.4.3-.5.6Z"/><path class="cls-2" d="M264.9,29.2h3.7l6.9,8.8h0V29.2h3.7V43.7h-3.7l-6.9-8.8h0v8.8h-3.7Z"/><path class="cls-2" d="M288.3,29.2H294c3.1,0,5.2,1.4,5.2,4.7s-1.8,4.9-5.1,4.9H292v4.8h-3.7Zm3.7,6.6h.6c1.4,0,2.7,0,2.7-1.8s-1.2-1.8-2.7-1.8H292Z"/><path class="cls-2" d="M310.1,34.8V29.2h3.7V43.7h-3.7V37.8h-5.4v5.9h-3.7V29.2h3.7v5.6Z"/><path class="cls-2" d="M320,43.7h-3.7V29.2H320Zm-1.3-15.5-1.2-.9,2.2-2.6,1.7,1.2Z"/></svg>