<?xml version="1.0" encoding="UTF-8"?>
<svg width="49px" height="49px" viewBox="0 0 49 49" version="1.1" xmlns="http://www.w3.org/2000/svg" xmlns:xlink="http://www.w3.org/1999/xlink">
    <!-- Generator: Sketch 52.5 (67469) - http://www.bohemiancoding.com/sketch -->
    <title>icon-benefit-4</title>
    <desc>Created with Sketch.</desc>
    <g id="Page-1" stroke="none" stroke-width="1" fill="none" fill-rule="evenodd">
        <g id="Benefit" transform="translate(-1100.000000, -385.000000)" fill="#FFFFFF" fill-rule="nonzero">
            <g id="Group-7" transform="translate(485.000000, 0.000000)">
                <g id="Group" transform="translate(549.000000, 103.000000)">
                    <g id="icon-benefit-4" transform="translate(66.000000, 282.000000)">
                        <path d="M48.1886885,14.483918 C48.1886885,14.483918 43.3690164,14.483918 43.3690164,14.483918 C42.9248033,14.483918 42.5657377,14.1240492 42.5657377,13.6806393 C42.5657377,13.2372295 42.9248033,12.8773607 43.3690164,12.8773607 C43.3690164,12.8773607 48.1886885,12.8773607 48.1886885,12.8773607 C48.6320984,12.8773607 48.9919672,13.2372295 48.9919672,13.6806393 C48.9919672,14.1240492 48.6320984,14.483918 48.1886885,14.483918 Z M45.4808361,6.14347541 C45.4808361,6.14347541 44.0895574,6.9467541 44.0895574,6.9467541 C43.9626393,7.01985246 43.8244754,7.05439344 43.6887213,7.05439344 C43.4107869,7.05439344 43.1408852,6.90980328 42.9914754,6.6527541 C42.7705738,6.26798361 42.9015082,5.77718033 43.2862787,5.55547541 C43.2862787,5.55547541 44.6775574,4.75219672 44.6775574,4.75219672 C45.0631311,4.52888525 45.5523279,4.66142623 45.7748361,5.04619672 C45.996541,5.43016393 45.8648033,5.92177049 45.4808361,6.14347541 Z M42.0026393,8.15167213 C42.0026393,8.15167213 36.4367213,11.3647869 36.4367213,11.3647869 C36.3106066,11.437082 36.1716393,11.471623 36.0358852,11.471623 C35.7579508,11.471623 35.4880492,11.3278361 35.3394426,11.0699836 C35.1177377,10.6860164 35.2486721,10.1952131 35.6334426,9.97270492 C35.6334426,9.97270492 41.1985574,6.75959016 41.1985574,6.75959016 C41.5833279,6.53708197 42.0733279,6.66962295 42.2966393,7.05439344 C42.517541,7.43836066 42.3866066,7.92916393 42.0026393,8.15167213 Z M34.5321475,19.3035902 C34.5321475,19.3035902 33.8228525,19.3035902 33.8228525,19.3035902 C33.8228525,19.3035902 33.9096066,20.0803607 33.9096066,20.0803607 C33.9096066,20.09 33.9144262,20.0972295 33.9144262,20.1068689 C33.9144262,20.110082 33.913623,20.1132951 33.913623,20.1165082 C33.913623,20.1165082 36.8584426,46.613459 36.8584426,46.613459 C36.8584426,46.613459 40.1550984,46.613459 40.1550984,46.613459 C40.5993115,46.613459 40.9591803,46.9725246 40.9591803,47.4167377 C40.9591803,47.8601475 40.5993115,48.2200164 40.1550984,48.2200164 C40.1550984,48.2200164 36.1547705,48.2200164 36.1547705,48.2200164 C36.1499508,48.2192131 36.1443279,48.2192131 36.1387049,48.2200164 C36.1387049,48.2200164 13.6460984,48.2200164 13.6460984,48.2200164 C13.6460984,48.2200164 9.62970492,48.2200164 9.62970492,48.2200164 C9.18629508,48.2200164 8.82642623,47.8601475 8.82642623,47.4167377 C8.82642623,46.9725246 9.18629508,46.613459 9.62970492,46.613459 C9.62970492,46.613459 12.9279672,46.613459 12.9279672,46.613459 C12.9279672,46.613459 15.9619508,19.3035902 15.9619508,19.3035902 C15.9619508,19.3035902 15.253459,19.3035902 15.253459,19.3035902 C14.8092459,19.3035902 14.449377,18.9437213 14.449377,18.5003115 C14.449377,18.0569016 14.8092459,17.6970328 15.253459,17.6970328 C15.253459,17.6970328 16.0567377,17.6970328 16.0567377,17.6970328 C16.0567377,17.6970328 16.0567377,10.4675246 16.0567377,10.4675246 C16.0567377,5.86714754 19.5927705,2.0804918 24.0895246,1.67322951 C24.0895246,1.67322951 24.0895246,0.828983607 24.0895246,0.828983607 C24.0895246,0.38557377 24.4493934,0.025704918 24.8928033,0.025704918 C25.3362131,0.025704918 25.696082,0.38557377 25.696082,0.828983607 C25.696082,0.828983607 25.696082,1.67242623 25.696082,1.67242623 C30.1382131,2.07486885 33.642918,5.77477049 33.7272623,10.2996393 C33.7385082,10.353459 33.7449344,10.4104918 33.7449344,10.4675246 C33.7449344,10.4956393 33.732082,10.5197377 33.7288689,10.5470492 C33.7288689,10.5470492 33.7288689,17.6970328 33.7288689,17.6970328 C33.7288689,17.6970328 34.5321475,17.6970328 34.5321475,17.6970328 C34.9763607,17.6970328 35.3354262,18.0569016 35.3354262,18.5003115 C35.3354262,18.9437213 34.9763607,19.3035902 34.5321475,19.3035902 Z M14.5441639,46.613459 C14.5441639,46.613459 35.2414426,46.613459 35.2414426,46.613459 C35.2414426,46.613459 34.392377,38.9702623 34.392377,38.9702623 C30.3502787,42.8629508 18.0625246,43.336082 14.901623,43.3923115 C14.901623,43.3923115 14.5441639,46.613459 14.5441639,46.613459 Z M24.8928033,3.23881967 C21.1776393,3.23881967 18.1083115,6.05511475 17.7074754,9.66504918 C17.7074754,9.66504918 32.0781311,9.66504918 32.0781311,9.66504918 C31.6772951,6.05511475 28.6079672,3.23881967 24.8928033,3.23881967 Z M17.6632951,11.2708033 C17.6632951,11.2708033 17.6632951,17.6970328 17.6632951,17.6970328 C17.6632951,17.6970328 20.8764098,17.6970328 20.8764098,17.6970328 C20.8764098,17.6970328 20.8764098,11.2708033 20.8764098,11.2708033 C20.8764098,11.2708033 17.6632951,11.2708033 17.6632951,11.2708033 Z M22.4829672,11.2708033 C22.4829672,11.2708033 22.4829672,17.6970328 22.4829672,17.6970328 C22.4829672,17.6970328 27.3026393,17.6970328 27.3026393,17.6970328 C27.3026393,17.6970328 27.3026393,11.2708033 27.3026393,11.2708033 C27.3026393,11.2708033 22.4829672,11.2708033 22.4829672,11.2708033 Z M32.1223115,11.2708033 C32.1223115,11.2708033 28.9091967,11.2708033 28.9091967,11.2708033 C28.9091967,11.2708033 28.9091967,17.6970328 28.9091967,17.6970328 C28.9091967,17.6970328 32.1223115,17.6970328 32.1223115,17.6970328 C32.1223115,17.6970328 32.1223115,11.2708033 32.1223115,11.2708033 Z M32.2066557,19.3035902 C32.2066557,19.3035902 17.5789508,19.3035902 17.5789508,19.3035902 C17.5789508,19.3035902 16.8664426,25.7145574 16.8664426,25.7145574 C18.5581475,25.6695738 22.2580492,25.4775902 25.7201803,24.667082 C28.7011475,23.9698361 32.2436066,22.623541 32.3030492,20.1671148 C32.3030492,20.1671148 32.2066557,19.3035902 32.2066557,19.3035902 Z M32.6331967,23.1400492 C31.3752623,24.4638525 29.2007869,25.5032951 26.0864754,26.2318689 C22.338377,27.1082459 18.3300164,27.2897869 16.6873115,27.3259344 C16.6873115,27.3259344 15.9731967,33.7505574 15.9731967,33.7505574 C22.1230984,33.6220328 33.1432787,32.1889836 33.1914754,28.1645574 C33.1914754,28.1645574 32.6331967,23.1400492 32.6331967,23.1400492 Z M33.5111803,31.0394918 C29.7325574,34.8140984 18.7549508,35.2976721 15.7948689,35.3587213 C15.7948689,35.3587213 15.0807541,41.782541 15.0807541,41.782541 C17.4849672,41.7287213 21.8507869,41.4652459 25.7499016,40.7254262 C31.1045574,39.7084754 34.0598197,38.1003115 34.083918,36.1941311 C34.083918,36.1941311 33.5111803,31.0394918 33.5111803,31.0394918 Z M21.3680164,5.5594918 C21.9648525,5.0735082 22.7175246,4.80601639 23.4870656,4.80601639 C23.9304754,4.80601639 24.2903443,5.16588525 24.2903443,5.60929508 C24.2903443,6.05270492 23.9304754,6.41257377 23.4870656,6.41257377 C23.0798033,6.41257377 22.6982459,6.54832787 22.3833607,6.80457377 C22.1319344,7.01021311 21.9423607,7.28011475 21.8355246,7.58455738 C21.7198525,7.9155082 21.4089836,8.1227541 21.0772295,8.1227541 C20.9896721,8.1227541 20.8997049,8.10829508 20.8121475,8.07696721 C20.3928361,7.93077049 20.1727377,7.47290164 20.3189344,7.05439344 C20.5237705,6.46960656 20.8860492,5.95309836 21.3680164,5.5594918 Z M13.803541,11.2708033 C13.6669836,11.2708033 13.5288197,11.2362623 13.4027049,11.1631639 C13.4027049,11.1631639 5.05422951,6.34429508 5.05422951,6.34429508 C4.66945902,6.12259016 4.53852459,5.63098361 4.76022951,5.24701639 C4.98113115,4.8622459 5.47113115,4.7305082 5.8575082,4.95301639 C5.8575082,4.95301639 14.2059836,9.77188525 14.2059836,9.77188525 C14.5899508,9.99439344 14.7216885,10.4851967 14.4999836,10.8691639 C14.3505738,11.1270164 14.0806721,11.2708033 13.803541,11.2708033 Z M13.3488852,15.9972951 C13.7336557,15.7747869 14.2236557,15.9073279 14.4461639,16.2912951 C14.6678689,16.6752623 14.5361311,17.1668689 14.1521639,17.3885738 C14.1521639,17.3885738 11.3688033,18.9951311 11.3688033,18.9951311 C11.2426885,19.0682295 11.1045246,19.1027705 10.9679672,19.1027705 C10.6900328,19.1027705 10.4209344,18.9589836 10.2715246,18.7011311 C10.0498197,18.3163607 10.1815574,17.8255574 10.5655246,17.6038525 C10.5655246,17.6038525 13.3488852,15.9972951 13.3488852,15.9972951 Z M14.449377,13.6806393 C14.449377,14.1240492 14.0903115,14.483918 13.6460984,14.483918 C13.6460984,14.483918 4.0067541,14.483918 4.0067541,14.483918 C3.56334426,14.483918 3.20347541,14.1240492 3.20347541,13.6806393 C3.20347541,13.2372295 3.56334426,12.8773607 4.0067541,12.8773607 C4.0067541,12.8773607 13.6460984,12.8773607 13.6460984,12.8773607 C14.0903115,12.8773607 14.449377,13.2372295 14.449377,13.6806393 Z M1.59691803,14.483918 C1.38806557,14.483918 1.17921311,14.3955574 1.02659016,14.2509672 C0.882,14.0983443 0.793639344,13.8894918 0.793639344,13.6806393 C0.793639344,13.4717869 0.882,13.2629344 1.02659016,13.1103115 C1.32380328,12.8130984 1.86119672,12.8130984 2.1672459,13.1103115 C2.31183607,13.2629344 2.40019672,13.4717869 2.40019672,13.6806393 C2.40019672,13.8894918 2.31183607,14.0983443 2.1672459,14.2509672 C2.01462295,14.3955574 1.80577049,14.483918 1.59691803,14.483918 Z M4.30477049,21.2178033 C4.30477049,21.2178033 8.47860656,18.8087705 8.47860656,18.8087705 C8.86337705,18.585459 9.35418033,18.718 9.57588525,19.1027705 C9.79759016,19.4867377 9.66665574,19.977541 9.28188525,20.2000492 C9.28188525,20.2000492 5.10804918,22.6098852 5.10804918,22.6098852 C4.98113115,22.6829836 4.84296721,22.7167213 4.70721311,22.7167213 C4.42927869,22.7167213 4.15937705,22.5729344 4.01077049,22.315082 C3.7882623,21.9311148 3.92,21.4403115 4.30477049,21.2178033 Z M36.4367213,15.9972951 C36.4367213,15.9972951 37.828,16.8005738 37.828,16.8005738 C38.2127705,17.0222787 38.3445082,17.513082 38.122,17.8978525 C37.9733934,18.1557049 37.7034918,18.2994918 37.4263607,18.2994918 C37.2898033,18.2994918 37.1516393,18.2649508 37.0247213,18.1918525 C37.0247213,18.1918525 35.6334426,17.3885738 35.6334426,17.3885738 C35.2494754,17.1668689 35.1177377,16.6752623 35.3394426,16.2912951 C35.5611475,15.9073279 36.0503443,15.7747869 36.4367213,15.9972951 Z M36.1387049,12.8773607 C36.1387049,12.8773607 38.548541,12.8773607 38.548541,12.8773607 C38.9927541,12.8773607 39.352623,13.2372295 39.352623,13.6806393 C39.352623,14.1240492 38.9927541,14.483918 38.548541,14.483918 C38.548541,14.483918 36.1387049,14.483918 36.1387049,14.483918 C35.6952951,14.483918 35.3354262,14.1240492 35.3354262,13.6806393 C35.3354262,13.2372295 35.6952951,12.8773607 36.1387049,12.8773607 Z M40.3888525,14.2509672 C40.243459,14.0983443 40.1550984,13.8894918 40.1550984,13.6806393 C40.1550984,13.4717869 40.243459,13.2629344 40.3888525,13.1103115 C40.6852623,12.8130984 41.2314918,12.8130984 41.5295082,13.1103115 C41.6732951,13.2629344 41.762459,13.4717869 41.762459,13.6806393 C41.762459,13.8894918 41.6732951,14.0983443 41.5295082,14.2509672 C41.3768852,14.3955574 41.1672295,14.483918 40.9591803,14.483918 C40.7495246,14.483918 40.5414754,14.3955574 40.3888525,14.2509672 Z M38.8176393,18.2994918 C39.0401475,17.9147213 39.5293443,17.7829836 39.9157213,18.0054918 C39.9157213,18.0054918 45.4808361,21.2178033 45.4808361,21.2178033 C45.8656066,21.4403115 45.996541,21.9311148 45.7748361,22.315082 C45.6262295,22.5729344 45.3563279,22.7167213 45.0783934,22.7167213 C44.9426393,22.7167213 44.8044754,22.6829836 44.6775574,22.6098852 C44.6775574,22.6098852 39.1124426,19.3967705 39.1124426,19.3967705 C38.7276721,19.1750656 38.5959344,18.683459 38.8176393,18.2994918 Z" id="Shape"></path>
                    </g>
                </g>
            </g>
        </g>
    </g>
</svg>