<?xml version="1.0" encoding="UTF-8"?>
<svg width="43px" height="45px" viewBox="0 0 43 45" version="1.1" xmlns="http://www.w3.org/2000/svg" xmlns:xlink="http://www.w3.org/1999/xlink">
    <!-- Generator: Sketch 52.5 (67469) - http://www.bohemiancoding.com/sketch -->
    <title>icon-benefit-2</title>
    <desc>Created with Sketch.</desc>
    <g id="Page-1" stroke="none" stroke-width="1" fill="none" fill-rule="evenodd">
        <g id="Benefit" transform="translate(-733.000000, -287.000000)" fill="#FFFFFF" fill-rule="nonzero">
            <g id="Group-7" transform="translate(485.000000, 0.000000)">
                <g id="Group-5" transform="translate(183.000000, 103.000000)">
                    <g id="icon-benefit-2" transform="translate(65.000000, 184.000000)">
                        <path d="M42.5007222,9.99883929 C42.5007222,9.99883929 37.3287778,13.0114286 37.3287778,13.0114286 C37.202963,13.0845536 37.066,13.1191071 36.9314259,13.1191071 C36.6559074,13.1191071 36.3883519,12.9752679 36.241037,12.7173214 C36.0212593,12.3332143 36.1510556,11.8414286 36.5324815,11.6196429 C36.5324815,11.6196429 41.7044259,8.60625 41.7044259,8.60625 C42.0850556,8.38446429 42.5715926,8.51705357 42.7921667,8.90116071 C43.0119444,9.28526786 42.8813519,9.77625 42.5007222,9.99883929 Z M31.0141481,8.42223214 C30.8668333,8.68017857 30.5992778,8.82401786 30.3237593,8.82401786 C30.1891852,8.82401786 30.0522222,8.78946429 29.9264074,8.71633929 C29.5457778,8.49455357 29.4151852,8.00276786 29.634963,7.61866071 C29.634963,7.61866071 32.6202778,2.39946429 32.6202778,2.39946429 C32.8400556,2.01535714 33.3265926,1.88276786 33.7088148,2.10535714 C34.0894444,2.32714286 34.220037,2.81892857 34.0002593,3.20303571 C34.0002593,3.20303571 31.0141481,8.42223214 31.0141481,8.42223214 Z M21.6576667,7.84928571 C21.2181111,7.84928571 20.8613704,7.48928571 20.8613704,7.04571429 C20.8613704,7.04571429 20.8613704,1.01892857 20.8613704,1.01892857 C20.8613704,0.575357143 21.2181111,0.215357143 21.6576667,0.215357143 C22.0972222,0.215357143 22.453963,0.575357143 22.453963,1.01892857 C22.453963,1.01892857 22.453963,7.04571429 22.453963,7.04571429 C22.453963,7.48928571 22.0972222,7.84928571 21.6576667,7.84928571 Z M13.6023333,9.06428571 C13.4765185,9.13741071 13.3395556,9.17196429 13.2049815,9.17196429 C12.929463,9.17196429 12.6619074,9.028125 12.5145926,8.77017857 C12.5145926,8.77017857 9.52848148,3.55098214 9.52848148,3.55098214 C9.3087037,3.166875 9.4392963,2.67508929 9.81992593,2.45330357 C10.2013519,2.23071429 10.6878889,2.36330357 10.9076667,2.74741071 C10.9076667,2.74741071 13.8937778,7.96660714 13.8937778,7.96660714 C14.1135556,8.35151786 13.982963,8.8425 13.6023333,9.06428571 Z M6.59731481,12.7711607 C6.46194444,12.7711607 6.32498148,12.7366071 6.19996296,12.6634821 C6.19996296,12.6634821 1.02801852,9.65089286 1.02801852,9.65089286 C0.646592593,9.42830357 0.516796296,8.93732143 0.736574074,8.55241071 C0.956351852,8.16830357 1.44209259,8.03571429 1.82431481,8.25830357 C1.82431481,8.25830357 6.99625926,11.2716964 6.99625926,11.2716964 C7.37688889,11.4934821 7.50748148,11.9844643 7.2877037,12.369375 C7.13959259,12.6273214 6.87203704,12.7711607 6.59731481,12.7711607 Z M2.45975926,22.978125 C2.46055556,22.9773214 2.46055556,22.9749107 2.46055556,22.9733036 C2.4732963,22.9459821 2.4932037,22.9234821 2.50833333,22.8977679 C2.53062963,22.8616071 2.54735185,22.8222321 2.57522222,22.7892857 C2.57522222,22.7892857 10.5381852,13.1464286 10.5381852,13.1464286 C10.5493333,13.1327679 10.5668519,13.1271429 10.5795926,13.1142857 C10.6249815,13.0652679 10.6783333,13.0283036 10.7356667,12.9921429 C10.7746852,12.9680357 10.8089259,12.9415179 10.8511296,12.9238393 C10.8662593,12.9182143 10.8766111,12.9053571 10.8917407,12.9005357 C10.9458889,12.88125 11.000037,12.8852679 11.0541852,12.8788393 C11.0868333,12.8740179 11.1162963,12.8571429 11.1497407,12.8571429 C11.1497407,12.8571429 31.8534444,12.8571429 31.8534444,12.8571429 C31.8868889,12.8571429 31.9171481,12.8748214 31.9497963,12.8788393 C32.0039444,12.8852679 32.0572963,12.88125 32.1114444,12.9005357 C32.1265741,12.9053571 32.1369259,12.9182143 32.1520556,12.9238393 C32.1942593,12.9415179 32.2285,12.9680357 32.2675185,12.9921429 C32.3248519,13.0283036 32.3782037,13.0652679 32.4243889,13.1142857 C32.4363333,13.1271429 32.4538519,13.1327679 32.465,13.1464286 C32.465,13.1464286 40.3459444,22.6888393 40.3459444,22.6888393 C40.3698333,22.7097321 40.3809815,22.7410714 40.4024815,22.7635714 C40.4176111,22.7804464 40.4295556,22.7989286 40.4438889,22.8174107 C40.5267037,22.9234821 40.5808519,23.045625 40.6023519,23.1854464 C40.6031481,23.1902679 40.6047407,23.1942857 40.605537,23.1999107 C40.6103148,23.2352679 40.6286296,23.2666071 40.6286296,23.3035714 C40.6286296,23.540625 40.5227222,23.7479464 40.3610741,23.895 C40.3610741,23.895 22.0980185,44.7283929 22.0980185,44.7283929 C22.0868704,44.7420536 22.0693519,44.746875 22.0566111,44.7597321 C22.0382963,44.7790179 22.0207778,44.7975 21.9992778,44.8151786 C21.9737963,44.8360714 21.9419444,44.848125 21.9140741,44.8658036 C21.873463,44.8907143 21.8376296,44.9188393 21.7938333,44.9365179 C21.7922407,44.9373214 21.7914444,44.938125 21.7898519,44.9389286 C21.7787037,44.9429464 21.7707407,44.9525893 21.7595926,44.9566071 C21.7564074,44.9574107 21.7540185,44.9574107 21.7516296,44.9582143 C21.6712037,44.9847321 21.5875926,45 21.5015926,45 C21.4155926,45 21.3319815,44.9847321 21.2515556,44.9582143 C21.2491667,44.9574107 21.2467778,44.9574107 21.2435926,44.9566071 C21.2324444,44.9525893 21.2252778,44.94375 21.2141296,44.9389286 C21.212537,44.938125 21.2109444,44.9373214 21.2093519,44.9365179 C21.1655556,44.9188393 21.1297222,44.8907143 21.0891111,44.8658036 C21.0612407,44.848125 21.0293889,44.8360714 21.0031111,44.8151786 C20.9824074,44.7975 20.9648889,44.7782143 20.9457778,44.7589286 C20.9338333,44.746875 20.9163148,44.7420536 20.9051667,44.7283929 C20.9051667,44.7283929 2.59114815,23.8363393 2.59114815,23.8363393 C2.54098148,23.7800893 2.49877778,23.7158036 2.46533333,23.6442857 C2.46533333,23.6434821 2.46533333,23.6434821 2.46453704,23.6426786 C2.451,23.6129464 2.44701852,23.58 2.43666667,23.5486607 C2.42312963,23.506875 2.40561111,23.4666964 2.39924074,23.4241071 C2.39924074,23.4208929 2.40003704,23.4176786 2.39924074,23.4136607 C2.38968519,23.3421429 2.38809259,23.2698214 2.39764815,23.1983036 C2.40003704,23.1822321 2.4072037,23.1669643 2.41038889,23.1508929 C2.42233333,23.0922321 2.43507407,23.0335714 2.45975926,22.978125 Z M12.2637593,14.4642857 C12.2637593,14.4642857 14.6590185,21.5284821 14.6590185,21.5284821 C14.6590185,21.5284821 19.909,14.4642857 19.909,14.4642857 C19.909,14.4642857 12.2637593,14.4642857 12.2637593,14.4642857 Z M15.9275185,22.5 C15.9275185,22.5 27.0756667,22.5 27.0756667,22.5 C27.0756667,22.5 21.5015926,14.9994643 21.5015926,14.9994643 C21.5015926,14.9994643 15.9275185,22.5 15.9275185,22.5 Z M23.0941852,14.4642857 C23.0941852,14.4642857 28.3441667,21.5284821 28.3441667,21.5284821 C28.3441667,21.5284821 30.7394259,14.4642857 30.7394259,14.4642857 C30.7394259,14.4642857 23.0941852,14.4642857 23.0941852,14.4642857 Z M32.1488704,15.2734821 C32.1488704,15.2734821 29.6986667,22.5 29.6986667,22.5 C29.6986667,22.5 38.1163148,22.5 38.1163148,22.5 C38.1163148,22.5 32.1488704,15.2734821 32.1488704,15.2734821 Z M38.0486296,24.1071429 C38.0486296,24.1071429 29.154,24.1071429 29.154,24.1071429 C29.154,24.1071429 23.5448889,40.6534821 23.5448889,40.6534821 C23.5448889,40.6534821 38.0486296,24.1071429 38.0486296,24.1071429 Z M21.5015926,41.7133929 C21.5015926,41.7133929 27.4706296,24.1071429 27.4706296,24.1071429 C27.4706296,24.1071429 15.5325556,24.1071429 15.5325556,24.1071429 C15.5325556,24.1071429 21.5015926,41.7133929 21.5015926,41.7133929 Z M19.4582963,40.6526786 C19.4582963,40.6526786 13.8491852,24.1071429 13.8491852,24.1071429 C13.8491852,24.1071429 4.95455556,24.1071429 4.95455556,24.1071429 C4.95455556,24.1071429 19.4582963,40.6526786 19.4582963,40.6526786 Z M13.3045185,22.5 C13.3045185,22.5 10.8551111,15.2726786 10.8551111,15.2726786 C10.8551111,15.2726786 4.88687037,22.5 4.88687037,22.5 C4.88687037,22.5 13.3045185,22.5 13.3045185,22.5 Z" id="Shape"></path>
                    </g>
                </g>
            </g>
        </g>
    </g>
</svg>