<?xml version="1.0" encoding="UTF-8"?>
<svg width="39px" height="39px" viewBox="0 0 39 39" version="1.1" xmlns="http://www.w3.org/2000/svg" xmlns:xlink="http://www.w3.org/1999/xlink">
    <!-- Generator: Sketch 52.5 (67469) - http://www.bohemiancoding.com/sketch -->
    <title>icon-benefit-3</title>
    <desc>Created with Sketch.</desc>
    <g id="Page-1" stroke="none" stroke-width="1" fill="none" fill-rule="evenodd">
        <g id="Benefit" transform="translate(-923.000000, -392.000000)" fill="#FFFFFF">
            <g id="Group-7" transform="translate(485.000000, 0.000000)">
                <g id="icon-benefit-3" transform="translate(438.000000, 392.000000)">
                    <path d="M32.3876283,5 L6.61079189,5 C6.24186092,5 5.91803941,4.74 5.82943154,4.36833333 L5.0239054,1.035 C4.96429647,0.786666667 5.01746119,0.521666667 5.16890011,0.32 C5.32033902,0.118333333 5.5571637,0 5.80526575,0 L33.1931544,0 C33.4412565,0 33.6764701,0.118333333 33.8295201,0.32 C33.9825701,0.521666667 34.0357348,0.785 33.9761258,1.035 L33.1705997,4.36833333 C33.0803808,4.74 32.7565593,5 32.3876283,5 Z M7.24071333,3.33333333 L31.7593179,3.33333333 L32.162081,1.66666667 L6.83795026,1.66666667 L7.24071333,3.33333333 Z" id="Shape" fill-rule="nonzero"></path>
                    <path d="M7,39 C6.448,39 6,38.6416 6,38.2 L6,15.8 C6,15.3584 6.448,15 7,15 C7.552,15 8,15.3584 8,15.8 L8,38.2 C8,38.6416 7.552,39 7,39 Z" id="Path"></path>
                    <path d="M32,39 C31.448,39 31,38.6416 31,38.2 L31,15.8 C31,15.3584 31.448,15 32,15 C32.552,15 33,15.3584 33,15.8 L33,38.2 C33,38.6416 32.552,39 32,39 Z" id="Path"></path>
                    <path d="M12,39 C11.448,39 11,38.6381538 11,38.1923077 L11,18.8076923 C11,18.3618462 11.448,18 12,18 C12.552,18 13,18.3618462 13,18.8076923 L13,38.1923077 C13,38.6381538 12.552,39 12,39 Z" id="Path"></path>
                    <path d="M17,39 C16.448,39 16,38.6381538 16,38.1923077 L16,18.8076923 C16,18.3618462 16.448,18 17,18 C17.552,18 18,18.3618462 18,18.8076923 L18,38.1923077 C18,38.6381538 17.552,39 17,39 Z" id="Path"></path>
                    <path d="M22,39 C21.448,39 21,38.6381538 21,38.1923077 L21,18.8076923 C21,18.3618462 21.448,18 22,18 C22.552,18 23,18.3618462 23,18.8076923 L23,38.1923077 C23,38.6381538 22.552,39 22,39 Z" id="Path"></path>
                    <path d="M27,39 C26.448,39 26,38.6381538 26,38.1923077 L26,18.8076923 C26,18.3618462 26.448,18 27,18 C27.552,18 28,18.3618462 28,18.8076923 L28,38.1923077 C28,38.6381538 27.552,39 27,39 Z" id="Path"></path>
                    <path d="M6.5,16 C2.91525,16 0,13.08475 0,9.5 C0,5.91525 2.91525,3 6.5,3 C6.9485,3 7.3125,3.364 7.3125,3.8125 C7.3125,4.261 6.9485,4.625 6.5,4.625 C3.81225,4.625 1.625,6.81225 1.625,9.5 C1.625,12.18775 3.81225,14.375 6.5,14.375 C9.18775,14.375 11.375,12.18775 11.375,9.5 C11.375,9.0515 11.739,8.6875 12.1875,8.6875 C12.636,8.6875 13,9.0515 13,9.5 C13,13.08475 10.08475,16 6.5,16 Z" id="Path"></path>
                    <path d="M32.5,16 C28.91525,16 26,13.08475 26,9.5 C26,9.0515 26.364,8.6875 26.8125,8.6875 C27.261,8.6875 27.625,9.0515 27.625,9.5 C27.625,12.18775 29.81225,14.375 32.5,14.375 C35.18775,14.375 37.375,12.18775 37.375,9.5 C37.375,6.81225 35.18775,4.625 32.5,4.625 C32.0515,4.625 31.6875,4.261 31.6875,3.8125 C31.6875,3.364 32.0515,3 32.5,3 C36.08475,3 39,5.91525 39,9.5 C39,13.08475 36.08475,16 32.5,16 Z" id="Path"></path>
                    <path d="M6.5,13 C4.56975,13 3,11.43025 3,9.5 C3,7.56975 4.56975,6 6.5,6 C8.43025,6 10,7.56975 10,9.5 C10,11.43025 8.43025,13 6.5,13 Z M6.5,7.75 C5.534,7.75 4.75,8.534 4.75,9.5 C4.75,10.466 5.534,11.25 6.5,11.25 C7.466,11.25 8.25,10.466 8.25,9.5 C8.25,8.534 7.466,7.75 6.5,7.75 Z" id="Shape" fill-rule="nonzero"></path>
                    <path d="M32.5,13 C30.56975,13 29,11.43025 29,9.5 C29,7.56975 30.56975,6 32.5,6 C34.43025,6 36,7.56975 36,9.5 C36,11.43025 34.43025,13 32.5,13 Z M32.5,7.75 C31.534,7.75 30.75,8.534 30.75,9.5 C30.75,10.466 31.534,11.25 32.5,11.25 C33.466,11.25 34.25,10.466 34.25,9.5 C34.25,8.534 33.466,7.75 32.5,7.75 Z" id="Shape" fill-rule="nonzero"></path>
                    <path d="M24.1666667,12 L15.8333333,12 C15.3733333,12 15,11.552 15,11 C15,10.448 15.3733333,10 15.8333333,10 L24.1666667,10 C24.6266667,10 25,10.448 25,11 C25,11.552 24.6266667,12 24.1666667,12 Z" id="Path"></path>
                    <path d="M25.1875,15 L13.8125,15 C13.364,15 13,14.552 13,14 C13,13.448 13.364,13 13.8125,13 L25.1875,13 C25.636,13 26,13.448 26,14 C26,14.552 25.636,15 25.1875,15 Z" id="Path"></path>
                </g>
            </g>
        </g>
    </g>
</svg>