<?xml version="1.0" encoding="UTF-8"?>
<svg width="46px" height="48px" viewBox="0 0 46 48" version="1.1" xmlns="http://www.w3.org/2000/svg" xmlns:xlink="http://www.w3.org/1999/xlink">
    <!-- Generator: Sketch 52.5 (67469) - http://www.bohemiancoding.com/sketch -->
    <title>icon-benefit-1</title>
    <desc>Created with Sketch.</desc>
    <g id="Page-1" stroke="none" stroke-width="1" fill="none" fill-rule="evenodd">
        <g id="Benefit" transform="translate(-548.000000, -386.000000)" fill="#FFFFFF" fill-rule="nonzero">
            <g id="Group-7" transform="translate(485.000000, 0.000000)">
                <g id="Group-4" transform="translate(0.000000, 103.000000)">
                    <g id="icon-benefit-1" transform="translate(63.000000, 283.000000)">
                        <path d="M44.8436552,30.3568 C44.1393793,31.2792 43.1828966,32.592 42.1804138,33.968 C38.7137586,38.7248 37.4614483,40.364 36.8713793,40.6984 C35.9838966,41.2024 23.9834483,44.7968 20.6214828,44.8 C20.6206897,44.8 20.6198966,44.8 20.6191034,44.8 C18.8044828,44.8 14.0648966,42.496 12.4794828,41.6016 L11.1034483,41.6016 L11.1034483,44.8016 C11.1034483,46.1248 10.035931,47.2016 8.72413793,47.2016 L3.70141379,47.2016 C2.53555172,47.2016 1.54813793,46.3552 1.35224138,45.1904 C0.137206897,37.9704 0.0150689655,32.44 0.0547241379,27.9824 C0.0666206897,26.6696 1.13413793,25.6016 2.43324138,25.6016 L8.72413793,25.6016 C10.035931,25.6016 11.1034483,26.6784 11.1034483,28.0016 L11.1034483,28.728 C11.8981379,28.6496 12.6341379,28.344 13.5097241,27.9704 C14.0831379,27.7256 14.7295172,27.4536 15.4750345,27.2152 C15.4861379,27.1864 15.479,27.1552 15.4932759,27.1272 C16.6765862,24.8232 20.2217586,23.2704 24.3530345,23.212 C24.3998276,22.688 24.479931,22.1648 24.6004828,21.6464 C23.8684483,21.5056 22.8334483,21.1752 22.057,20.3736 C22.057,20.3736 22.0562069,20.3736 22.0562069,20.3728 C20.9926552,19.2744 20.3795862,16.92 20.9982069,16.3112 C21.16,16.1496 21.3725517,16.084 21.5882759,16.084 C21.8428621,16.0888 23.8446552,16.1728 25.0906207,17.4592 C25.2714483,17.6464 25.4213448,17.8488 25.5522069,18.056 C25.8337586,16.7096 25.8282069,15.492 24.9986207,14.4016 L13.4827586,14.4016 C13.0441724,14.4016 12.6896552,14.044 12.6896552,13.6016 L12.6896552,0.8016 C12.6896552,0.3592 13.0441724,0.0016 13.4827586,0.0016 L37.2758621,0.0016 C37.7144483,0.0016 38.0689655,0.3592 38.0689655,0.8016 L38.0689655,13.6016 C38.0689655,14.044 37.7144483,14.4016 37.2758621,14.4016 L26.8568621,14.4016 C27.1978966,15.148 27.3208276,15.9168 27.3105172,16.6888 C28.9292414,15.7672 30.9207241,16.0592 31.2942759,16.1272 C31.3815172,16.1384 31.4679655,16.1632 31.5488621,16.204 C31.8034483,16.3304 31.9731724,16.592 31.9914138,16.8784 C32.0247241,17.4032 31.0206552,19.724 29.3916207,20.8176 C28.4882759,21.4232 27.5238621,21.58 26.772,21.58 C26.5848276,21.58 26.411931,21.5696 26.2556897,21.5552 C26.1026207,22.1392 25.9907931,22.708 25.9352759,23.2648 C29.0355172,23.5144 31.6487931,24.6168 33.0319655,26.2256 C33.679931,25.4056 34.7664828,24.2208 36.4502414,23.1288 C37.6264138,22.3656 38.6796552,22.1424 39.5718966,22.4624 C40.0802759,22.644 40.4974483,23.0104 40.8083448,23.5024 C41.9908621,23.016 43.1472069,23.084 43.9506207,23.7408 C44.7016897,24.3536 44.9412069,25.348 44.6192069,26.4008 C44.7215172,26.4712 44.8238276,26.5432 44.9118621,26.6272 C45.6534138,27.3368 46.0801034,28.7384 44.8436552,30.3568 Z M9.51724138,28.0016 C9.51724138,27.56 9.16193103,27.2016 8.72413793,27.2016 L2.43324138,27.2016 C2.001,27.2016 1.64489655,27.5576 1.64093103,27.996 C1.60206897,32.3832 1.72182759,37.8264 2.91703448,44.9232 C2.98286207,45.316 3.3127931,45.6016 3.70141379,45.6016 L8.72413793,45.6016 C9.16193103,45.6016 9.51724138,45.2432 9.51724138,44.8016 L9.51724138,28.0016 Z M23.9564828,18.5784 C23.5393103,18.148 22.9452759,17.924 22.4519655,17.808 C22.5685517,18.2728 22.7890345,18.84 23.1911379,19.2552 C23.6027586,19.68 24.1666552,19.9032 24.6337931,20.0208 C24.5465517,19.5536 24.3577931,18.992 23.9564828,18.5784 Z M28.5128621,19.4848 C29.1830345,19.036 29.7207586,18.244 30.0546552,17.6216 C30.0506897,17.6216 30.0475172,17.6216 30.0435517,17.6216 C29.4074828,17.6216 28.5818621,17.7248 27.9315172,18.1616 C27.3945862,18.5224 27.0432414,19.072 26.8140345,19.5744 C26.7767586,19.7088 26.7394828,19.8432 26.7014138,19.976 C27.2137586,19.9864 27.8966207,19.8984 28.5128621,19.4848 Z M36.4827586,12.8016 L36.4827586,1.6016 L14.2758621,1.6016 L14.2758621,12.8016 L36.4827586,12.8016 Z M26.0248966,24.8752 C26.0582069,25.0248 26.0748621,25.1776 26.1264138,25.324 C26.2731379,25.7408 26.059,26.1984 25.6457931,26.3472 C25.5577586,26.3784 25.4673448,26.3928 25.3793103,26.3928 C25.0533448,26.3928 24.748,26.1888 24.6322069,25.8616 C24.5076897,25.5104 24.4244138,25.1592 24.372069,24.8088 C21.8555517,24.8456 19.5151034,25.5248 18.0851379,26.5656 C18.5062759,26.5584 18.9099655,26.568 19.3033448,26.5872 C22.5867931,26.4584 24.1975862,27.252 25.3896207,27.8536 C25.6695862,27.9952 25.9170345,28.12 26.151,28.2128 C26.281069,28.224 26.3833793,28.2216 26.503931,28.2272 C27.2962414,28.2656 27.9005862,28.2232 28.2892069,28.156 C28.4866897,28.1224 28.6484828,28.0856 28.7341379,28.0528 C29.2766207,27.8464 29.7794483,27.68 30.2537241,27.5424 C30.4044138,27.4976 30.5424138,27.4712 30.6891379,27.4328 C31.0047931,27.3504 31.3156897,27.2728 31.6004138,27.2192 C31.655931,27.208 31.7193793,27.188 31.7748966,27.1784 C30.7636897,26.0912 28.7277931,25.1336 26.0248966,24.8752 Z M39.0421034,23.9704 C38.6423793,23.8264 38.0285172,24.008 37.3083793,24.4744 C35.8823793,25.3992 34.9393793,26.4 34.3516897,27.1248 C34.9663448,27.2296 35.4398276,27.4208 35.7998966,27.6424 C36.5636552,26.7248 37.8397586,25.5024 39.4513448,24.3088 C39.3498276,24.1608 39.2181724,24.0328 39.0421034,23.9704 Z M42.9528966,24.984 C42.5634828,24.6656 41.653,24.6728 40.5807241,25.4512 C38.8842759,26.6816 37.5764483,27.9584 36.9023103,28.8048 C37.1251724,29.2296 37.252069,29.716 37.2726897,30.2448 C38.4195172,28.98 39.6036207,27.8208 40.8432414,26.7488 C41.5514828,26.1352 42.3628276,25.8928 43.109931,25.9176 C43.1963793,25.628 43.2455517,25.2232 42.9528966,24.984 Z M43.8205517,27.788 C43.4136897,27.3992 42.5753793,27.3568 41.8766552,27.9624 C39.6353448,29.9016 37.5788276,32.1384 35.5928966,34.7984 C35.3502069,35.2528 34.8806897,35.224 34.5721724,35.204 C34.0828276,35.1736 32.9851724,35.1048 30.965931,35.2168 C30.5717586,35.2776 30.1736207,35.3168 29.7754828,35.3344 C29.4241379,35.3496 29.0735862,35.3664 28.719069,35.3888 C28.688931,35.392 28.6587931,35.3952 28.6278621,35.3976 C28.5945517,35.4016 28.5604483,35.4008 28.5334828,35.4016 C27.6959655,35.4592 26.833069,35.5536 25.8868966,35.7416 C25.4015172,36.1768 24.0191379,37.292 22.2298966,37.6528 C21.796069,37.7424 21.382069,37.4584 21.2972069,37.0256 C21.2107586,36.592 21.489931,36.1712 21.919,36.084 C23.6305172,35.7392 24.9383448,34.448 24.9518276,34.4344 C25.0604828,34.3256 25.1992759,34.2496 25.3491724,34.2176 C26.5205862,33.9728 27.5865172,33.86 28.5826552,33.7952 C29.4098621,33.7168 30.1426897,33.6616 30.7874828,33.624 C31.8121724,33.4592 33.158069,33.076 34.4563793,32.2032 C35.4834483,31.5128 35.6896552,31.0016 35.6896552,30.4016 C35.6896552,29.7992 35.4747241,29.344 35.0504138,29.0488 C34.5801034,28.72 33.8575862,28.5944 32.9534483,28.652 C32.8368621,28.6592 32.7147241,28.6712 32.5917931,28.6848 C32.4387241,28.7024 32.2832759,28.7216 32.1206897,28.7488 C32.0112414,28.7664 31.8970345,28.7912 31.7836207,28.8136 C31.6059655,28.8496 31.4283103,28.8848 31.241931,28.9312 C31.103931,28.9656 30.9587931,29.0096 30.8160345,29.0496 C30.6478966,29.0968 30.4837241,29.1408 30.3100345,29.196 C29.9824828,29.3 29.6462069,29.416 29.2956552,29.5496 C29.1695517,29.5984 29.0037931,29.6424 28.8174138,29.6832 C28.7626897,29.696 28.7016207,29.7056 28.6413448,29.7168 C28.4938276,29.7448 28.3336207,29.7672 28.1575517,29.7872 C28.0742759,29.7968 27.9957586,29.8064 27.906931,29.8136 C27.6642414,29.8344 27.4025172,29.8472 27.1154138,29.8488 C26.7450345,29.8504 26.3445172,29.8376 25.9051379,29.7984 C25.8361379,29.792 25.767931,29.7776 25.7028966,29.7528 C25.5474483,29.696 25.3729655,29.6288 25.1802414,29.5536 C23.9897931,29.0928 21.9864138,28.3272 19.2034138,28.1928 C18.9448621,28.2056 18.6958276,28.2136 18.4118966,28.2392 C16.5623793,28.4064 15.2688276,28.9576 14.1275517,29.444 C13.1448966,29.8624 12.2026897,30.248 11.1034483,30.3256 L11.1034483,40.0016 L12.6896552,40.0016 C12.8300345,40.0016 12.9680345,40.0392 13.0893793,40.1112 C14.8405517,41.1416 19.3239655,43.2 20.6183103,43.2 C20.6191034,43.2 20.6191034,43.2 20.6198966,43.2 C23.6685862,43.1968 35.4041379,39.652 36.1036552,39.2992 C36.5985517,38.9272 39.1880345,35.3728 40.901931,33.02 C41.9131379,31.6336 42.8775517,30.3096 43.5873793,29.3808 C43.8284828,29.0656 44.3321034,28.2792 43.8205517,27.788 Z M15.862069,4.0016 C16.2998621,4.0016 16.6551724,3.6432 16.6551724,3.2016 C16.6551724,2.7592 17.0096897,2.4016 17.4482759,2.4016 L33.3103448,2.4016 C33.748931,2.4016 34.1034483,2.7592 34.1034483,3.2016 C34.1034483,3.6432 34.4587586,4.0016 34.8965517,4.0016 C35.3351379,4.0016 35.6896552,4.3592 35.6896552,4.8016 L35.6896552,9.6016 C35.6896552,10.044 35.3351379,10.4016 34.8965517,10.4016 C34.4587586,10.4016 34.1034483,10.76 34.1034483,11.2016 C34.1034483,11.644 33.748931,12.0016 33.3103448,12.0016 L17.4482759,12.0016 C17.0096897,12.0016 16.6551724,11.644 16.6551724,11.2016 C16.6551724,10.76 16.2998621,10.4016 15.862069,10.4016 C15.4234828,10.4016 15.0689655,10.044 15.0689655,9.6016 L15.0689655,4.8016 C15.0689655,4.3592 15.4234828,4.0016 15.862069,4.0016 Z M28.4113448,10.4016 L32.6528621,10.4016 C32.8923793,9.72 33.4277241,9.18 34.1034483,8.9384 L34.1034483,5.4648 C33.4277241,5.2232 32.8923793,4.6832 32.6528621,4.0016 L28.4113448,4.0016 C29.0664483,4.8528 29.4772759,5.968 29.4772759,7.2016 C29.4772759,8.4352 29.0664483,9.5504 28.4113448,10.4016 Z M25.3793103,10.4016 C26.764069,10.4016 27.891069,8.9664 27.891069,7.2016 C27.891069,5.4368 26.764069,4.0016 25.3793103,4.0016 C23.9945517,4.0016 22.8675517,5.4368 22.8675517,7.2016 C22.8675517,8.9664 23.9945517,10.4016 25.3793103,10.4016 Z M16.6551724,8.9384 C17.3308966,9.18 17.8662414,9.72 18.1057586,10.4016 L22.3472759,10.4016 C21.6921724,9.5504 21.2813448,8.4352 21.2813448,7.2016 C21.2813448,5.968 21.6921724,4.8528 22.3472759,4.0016 L18.1057586,4.0016 C17.8662414,4.6832 17.3308966,5.2232 16.6551724,5.4648 L16.6551724,8.9384 Z M19.0344828,6.0016 C19.6903793,6.0016 20.2241379,6.54 20.2241379,7.2016 C20.2241379,7.8632 19.6903793,8.4016 19.0344828,8.4016 C18.3785862,8.4016 17.8448276,7.8632 17.8448276,7.2016 C17.8448276,6.54 18.3785862,6.0016 19.0344828,6.0016 Z M19.0344828,7.6016 C19.2525862,7.6016 19.4310345,7.4216 19.4310345,7.2016 C19.4310345,6.9816 19.2525862,6.8016 19.0344828,6.8016 C18.8163793,6.8016 18.637931,6.9816 18.637931,7.2016 C18.637931,7.4216 18.8163793,7.6016 19.0344828,7.6016 Z M31.7241379,6.0016 C32.3800345,6.0016 32.9137931,6.54 32.9137931,7.2016 C32.9137931,7.8632 32.3800345,8.4016 31.7241379,8.4016 C31.0682414,8.4016 30.5344828,7.8632 30.5344828,7.2016 C30.5344828,6.54 31.0682414,6.0016 31.7241379,6.0016 Z M31.7241379,7.6016 C31.9422414,7.6016 32.1206897,7.4216 32.1206897,7.2016 C32.1206897,6.9816 31.9422414,6.8016 31.7241379,6.8016 C31.5060345,6.8016 31.3275862,6.9816 31.3275862,7.2016 C31.3275862,7.4216 31.5060345,7.6016 31.7241379,7.6016 Z M6.90793103,42.9696 C6.75644828,43.1208 6.55896552,43.2016 6.34482759,43.2016 C6.12989655,43.2016 5.93241379,43.1208 5.78172414,42.9696 C5.71034483,42.8888 5.65482759,42.8016 5.61517241,42.7056 C5.57551724,42.6096 5.55172414,42.5056 5.55172414,42.4016 C5.55172414,42.2976 5.57551724,42.1936 5.61517241,42.0976 C5.65482759,41.9936 5.71034483,41.9136 5.78172414,41.8336 C5.86024138,41.7616 5.94034483,41.7056 6.04344828,41.6656 C6.233,41.5848 6.45586207,41.5848 6.6462069,41.6656 C6.74137931,41.7056 6.82782759,41.7616 6.90793103,41.8336 C6.97931034,41.9136 7.03482759,41.9936 7.07448276,42.0976 C7.11413793,42.1936 7.13793103,42.2976 7.13793103,42.4016 C7.13793103,42.5056 7.11413793,42.6096 7.07448276,42.7056 C7.03482759,42.8016 6.97931034,42.8888 6.90793103,42.9696 Z" id="Shape"></path>
                    </g>
                </g>
            </g>
        </g>
    </g>
</svg>